<?xml version="1.0" encoding="utf-8"?>
<!-- Generator: Adobe Illustrator 22.1.0, SVG Export Plug-In . SVG Version: 6.00 Build 0)  -->
<svg version="1.1" id="Layer_1" xmlns="http://www.w3.org/2000/svg" xmlns:xlink="http://www.w3.org/1999/xlink" x="0px" y="0px"
	 viewBox="0 0 202 14.2" style="enable-background:new 0 0 202 14.2;" xml:space="preserve">
<style type="text/css">
	.st0{fill:#FEFEFE;}
	.st1{fill:#FF674C;}
</style>
<g>
	<line class="st0" x1="106" y1="0" x2="106" y2="14.2"/>
	<rect x="105.9" y="9.4" class="st1" width="0.3" height="4.7"/>
	<polyline class="st1" points="106.2,0 106.2,4.7 105.9,4.7 105.9,0 	"/>
	<line class="st0" x1="116.7" y1="0" x2="116.7" y2="14.2"/>
	<rect x="116.6" y="9.4" class="st1" width="0.3" height="4.7"/>
	<polyline class="st1" points="116.8,0 116.8,4.7 116.6,4.7 116.6,0 	"/>
	<line class="st0" x1="127.3" y1="0" x2="127.3" y2="14.2"/>
	<line class="st1" x1="127.6" y1="0" x2="127.6" y2="14.2"/>
	<line class="st1" x1="127.1" y1="14.2" x2="127.1" y2="0"/>
	<line class="st0" x1="137.9" y1="0" x2="137.9" y2="14.2"/>
	<rect x="137.8" y="9.4" class="st1" width="0.3" height="4.7"/>
	<polyline class="st1" points="138.1,0 138.1,4.7 137.8,4.7 137.8,0 	"/>
	<line class="st0" x1="148.6" y1="0" x2="148.6" y2="14.2"/>
	<rect x="148.4" y="9.4" class="st1" width="0.3" height="4.7"/>
	<polyline class="st1" points="148.7,0 148.7,4.7 148.4,4.7 148.4,0 	"/>
	<line class="st0" x1="159.2" y1="0" x2="159.2" y2="14.2"/>
	<rect x="159.1" y="9.4" class="st1" width="0.3" height="4.7"/>
	<polyline class="st1" points="159.3,0 159.3,4.7 159.1,4.7 159.1,0 	"/>
	<line class="st0" x1="169.8" y1="0" x2="169.8" y2="14.2"/>
	<line class="st1" x1="170.1" y1="0" x2="170.1" y2="14.2"/>
	<line class="st1" x1="169.6" y1="14.2" x2="169.6" y2="0"/>
	<line class="st0" x1="180.5" y1="0" x2="180.5" y2="14.2"/>
	<rect x="180.3" y="9.4" class="st1" width="0.3" height="4.7"/>
	<polyline class="st1" points="180.6,0 180.6,4.7 180.3,4.7 180.3,0 	"/>
	<line class="st0" x1="191.1" y1="0" x2="191.1" y2="14.2"/>
	<rect x="191" y="9.4" class="st1" width="0.3" height="4.7"/>
	<polyline class="st1" points="191.2,0 191.2,4.7 191,4.7 191,0 	"/>
	<line class="st0" x1="21" y1="0" x2="21" y2="14.2"/>
	<polyline class="st1" points="20.9,14.1 20.9,9.4 21.1,9.4 21.1,14.1 	"/>
	<polyline class="st1" points="21.1,0 21.1,4.7 20.9,4.7 20.9,0 	"/>
	<line class="st0" x1="10.4" y1="0" x2="10.4" y2="14.2"/>
	<polyline class="st1" points="10.3,14.1 10.3,9.4 10.5,9.4 10.5,14.1 	"/>
	<polyline class="st1" points="10.5,0 10.5,4.7 10.3,4.7 10.3,0 	"/>
	<line class="st0" x1="31.6" y1="0" x2="31.6" y2="14.2"/>
	<polyline class="st1" points="31.5,14.1 31.5,9.4 31.8,9.4 31.8,14.1 	"/>
	<polyline class="st1" points="31.8,0 31.8,4.7 31.5,4.7 31.5,0 	"/>
	<line class="st0" x1="52.9" y1="0" x2="52.9" y2="14.2"/>
	<polyline class="st1" points="52.8,14.1 52.8,9.4 53,9.4 53,14.1 	"/>
	<polyline class="st1" points="53,0 53,4.7 52.8,4.7 52.8,0 	"/>
	<line class="st0" x1="63.5" y1="0" x2="63.5" y2="14.2"/>
	<polyline class="st1" points="63.4,14.1 63.4,9.4 63.7,9.4 63.7,14.1 	"/>
	<polyline class="st1" points="63.7,0 63.7,4.7 63.4,4.7 63.4,0 	"/>
	<line class="st0" x1="74.2" y1="0" x2="74.2" y2="14.2"/>
	<polyline class="st1" points="74,14.1 74,9.4 74.3,9.4 74.3,14.1 	"/>
	<polyline class="st1" points="74.3,0 74.3,4.7 74,4.7 74,0 	"/>
	<line class="st0" x1="95.4" y1="0" x2="95.4" y2="14.2"/>
	<polyline class="st1" points="95.3,14.1 95.3,9.4 95.5,9.4 95.5,14.1 	"/>
	<polyline class="st1" points="95.5,0 95.5,4.7 95.3,4.7 95.3,0 	"/>
	<line class="st0" x1="42.3" y1="0" x2="42.3" y2="14.2"/>
	<line class="st1" x1="42.5" y1="0" x2="42.5" y2="14.2"/>
	<line class="st1" x1="42" y1="14.2" x2="42" y2="0"/>
	<line class="st0" x1="84.8" y1="0" x2="84.8" y2="14.2"/>
	<line class="st1" x1="85" y1="0" x2="85" y2="14.2"/>
	<line class="st1" x1="84.5" y1="14.2" x2="84.5" y2="0"/>
</g>
<g>
	<rect x="127.1" y="0" class="st1" width="0.5" height="14.2"/>
</g>
<g>
	<rect x="169.6" y="0" class="st1" width="0.5" height="14.2"/>
</g>
<g>
	<rect x="84.5" y="0" class="st1" width="0.5" height="14.2"/>
</g>
<g>
	<rect x="42" y="0" class="st1" width="0.5" height="14.2"/>
</g>
<g>
</g>
<g>
</g>
<g>
</g>
<g>
</g>
<g>
</g>
<g>
</g>
</svg>
