<?xml version="1.0" encoding="utf-8"?>
<!-- Generator: Adobe Illustrator 22.1.0, SVG Export Plug-In . SVG Version: 6.00 Build 0)  -->
<svg version="1.1" id="Layer_1" xmlns="http://www.w3.org/2000/svg" xmlns:xlink="http://www.w3.org/1999/xlink" x="0px" y="0px"
	 viewBox="0 0 233.9 14.2" style="enable-background:new 0 0 233.9 14.2;" xml:space="preserve">
<style type="text/css">
	.st0{fill-rule:evenodd;clip-rule:evenodd;fill:#FEFEFE;}
	.st1{fill:#FF674C;}
</style>
<polyline class="st0" points="233.9,14.2 0,14.2 0,0 233.9,0 "/>
<g>
	<path class="st1" d="M10.5,14.1V9.4h0.3v4.7H10.5z M10.5,4.7V0h0.3v4.7H10.5z"/>
</g>
<g>
	<path class="st1" d="M21.1,14.1V9.4h0.3v4.7H21.1z M21.1,4.7V0h0.3v4.7H21.1z"/>
</g>
<g>
	<path class="st1" d="M31.8,14.1V9.4H32v4.7H31.8z M31.8,4.7V0H32v4.7H31.8z"/>
</g>
<g>
	<path class="st1" d="M53,14.1V9.4h0.3v4.7H53z M53,4.7V0h0.3v4.7H53z"/>
</g>
<g>
	<path class="st1" d="M42.4,14.1V9.4h0.3v4.7H42.4z M42.4,4.7V0h0.3v4.7H42.4z"/>
</g>
<g>
	<path class="st1" d="M63.7,14.1V9.4h0.3v4.7H63.7z M63.7,4.7V0h0.3v4.7H63.7z"/>
</g>
<g>
	<path class="st1" d="M74.3,14.1V9.4h0.3v4.7H74.3z M74.3,4.7V0h0.3v4.7H74.3z"/>
</g>
<g>
	<path class="st1" d="M95.5,14.1V9.4h0.3v4.7H95.5z M95.5,4.7V0h0.3v4.7H95.5z"/>
</g>
<g>
	<path class="st1" d="M84.9,14.1V9.4h0.3v4.7H84.9z M84.9,4.7V0h0.3v4.7H84.9z"/>
</g>
<g>
	<path class="st1" d="M106.2,14.1V9.4h0.3v4.7H106.2z M106.2,4.7V0h0.3v4.7H106.2z"/>
</g>
<g>
	<path class="st1" d="M116.8,14.1V9.4h0.3v4.7H116.8z M116.8,4.7V0h0.3v4.7H116.8z"/>
</g>
<g>
	<path class="st1" d="M138.1,14.1V9.4h0.3v4.7H138.1z M138.1,4.7V0h0.3v4.7H138.1z"/>
</g>
<g>
	<path class="st1" d="M127.4,14.1V9.4h0.3v4.7H127.4z M127.4,4.7V0h0.3v4.7H127.4z"/>
</g>
<g>
	<path class="st1" d="M148.7,14.1V9.4h0.3v4.7H148.7z M148.7,4.7V0h0.3v4.7H148.7z"/>
</g>
<polyline class="st1" points="138.1,14.1 138.1,9.4 138.3,9.4 138.3,14.1 "/>
<polyline class="st1" points="138.3,0 138.3,4.7 138.1,4.7 138.1,0 "/>
<polyline class="st1" points="148.7,14.1 148.7,9.4 148.9,9.4 148.9,14.1 "/>
<polyline class="st1" points="148.9,0 148.9,4.7 148.7,4.7 148.7,0 "/>
<polyline class="st1" points="159.3,14.1 159.3,9.4 159.6,9.4 159.6,14.1 "/>
<polyline class="st1" points="159.6,0 159.6,4.7 159.3,4.7 159.3,0 "/>
<polyline class="st1" points="180.6,14.1 180.6,9.4 180.8,9.4 180.8,14.1 "/>
<polyline class="st1" points="180.8,0 180.8,4.7 180.6,4.7 180.6,0 "/>
<polyline class="st1" points="170,14.1 170,9.4 170.2,9.4 170.2,14.1 "/>
<polyline class="st1" points="170.2,0 170.2,4.7 170,4.7 170,0 "/>
<polyline class="st1" points="191.2,14.1 191.2,9.4 191.5,9.4 191.5,14.1 "/>
<polyline class="st1" points="191.5,0 191.5,4.7 191.2,4.7 191.2,0 "/>
<polyline class="st1" points="201.8,14.1 201.8,9.4 202.1,9.4 202.1,14.1 "/>
<polyline class="st1" points="202.1,0 202.1,4.7 201.8,4.7 201.8,0 "/>
<polyline class="st1" points="223.1,14.1 223.1,9.4 223.4,9.4 223.4,14.1 "/>
<polyline class="st1" points="223.4,0 223.4,4.7 223.1,4.7 223.1,0 "/>
<polyline class="st1" points="212.5,14.1 212.5,9.4 212.7,9.4 212.7,14.1 "/>
<polyline class="st1" points="212.7,0 212.7,4.7 212.5,4.7 212.5,0 "/>
<g>
</g>
<g>
</g>
<g>
</g>
<g>
</g>
<g>
</g>
<g>
</g>
</svg>
