<?xml version="1.0" encoding="utf-8"?>
<!-- Generator: Adobe Illustrator 22.1.0, SVG Export Plug-In . SVG Version: 6.00 Build 0)  -->
<svg version="1.1" id="Layer_1" xmlns="http://www.w3.org/2000/svg" xmlns:xlink="http://www.w3.org/1999/xlink" x="0px" y="0px"
	 viewBox="0 0 85 14.2" style="enable-background:new 0 0 85 14.2;" xml:space="preserve">
<style type="text/css">
	.st0{fill-rule:evenodd;clip-rule:evenodd;fill:#FEFEFE;}
	.st1{fill:#FF674C;}
	.st2{fill-rule:evenodd;clip-rule:evenodd;fill:#FF674C;}
</style>
<g>
	<rect x="0" y="0" class="st0" width="85" height="14.2"/>
</g>
<g>
	<rect x="21.1" y="0" class="st1" width="0.3" height="14.2"/>
</g>
<g>
	<rect x="42.4" y="0" class="st1" width="0.3" height="14.2"/>
</g>
<g>
	<path class="st1" d="M10.5,14.1V9.4h0.3v4.7H10.5z M10.5,4.7V0h0.3v4.7H10.5z"/>
</g>
<g>
	<path class="st1" d="M31.8,14.1V9.4H32v4.7H31.8z M31.8,4.7V0H32v4.7H31.8z"/>
</g>
<g>
	<path class="st1" d="M53,14.1V9.4h0.3v4.7H53z M53,4.7V0h0.3v4.7H53z"/>
</g>
<g>
	<path class="st1" d="M63.7,14.1V9.4h0.3v4.7H63.7z M63.7,4.7V0h0.3v4.7H63.7z"/>
</g>
<g>
	<path class="st1" d="M74.3,14.1V9.4h0.3v4.7H74.3z M74.3,4.7V0h0.3v4.7H74.3z"/>
</g>
<g>
	<rect x="20.3" y="11.9" class="st2" width="2" height="2.3"/>
</g>
<g>
	<rect x="41.5" y="11.9" class="st2" width="2" height="2.3"/>
</g>
<g>
</g>
<g>
</g>
<g>
</g>
<g>
</g>
<g>
</g>
<g>
</g>
</svg>
