<?xml version="1.0" encoding="utf-8"?>
<!-- Generator: Adobe Illustrator 22.1.0, SVG Export Plug-In . SVG Version: 6.00 Build 0)  -->
<svg version="1.1" id="Layer_1" xmlns="http://www.w3.org/2000/svg" xmlns:xlink="http://www.w3.org/1999/xlink" x="0px" y="0px"
	 viewBox="0 0 361.4 14.2" style="enable-background:new 0 0 361.4 14.2;" xml:space="preserve">
<style type="text/css">
	.st0{fill:#FF674C;}
</style>
<g>
	<path class="st0" d="M10.3,14.2V10h0.3v4.2H10.3z M10.3,5V0h0.3v5H10.3z"/>
	<path class="st0" d="M20.9,14.2V10h0.3v4.2H20.9z M20.9,5V0h0.3v5H20.9z"/>
	<path class="st0" d="M31.5,14.2V10h0.3v4.2H31.5z M31.5,5V0h0.3v5H31.5z"/>
	<rect x="42" y="0" class="st0" width="0.5" height="14.2"/>
	<path class="st0" d="M52.8,14.2V10H53v4.2H52.8z M52.8,5V0H53v5H52.8z"/>
	<path class="st0" d="M63.4,14.2V10h0.3v4.2H63.4z M63.4,5V0h0.3v5H63.4z"/>
	<path class="st0" d="M74,14.2V10h0.3v4.2H74z M74,5V0h0.3v5H74z"/>
	<rect x="84.5" y="0" class="st0" width="0.5" height="14.2"/>
	<path class="st0" d="M95.3,14.2V10h0.3v4.2H95.3z M95.3,5V0h0.3v5H95.3z"/>
	<path class="st0" d="M105.9,14.2V10h0.3v4.2H105.9z M105.9,5V0h0.3v5H105.9z"/>
	<path class="st0" d="M116.6,14.2V10h0.3v4.2H116.6z M116.6,5V0h0.3v5H116.6z"/>
	<rect x="127.1" y="0" class="st0" width="0.5" height="14.2"/>
	<path class="st0" d="M137.8,14.2V10h0.3v4.2H137.8z M137.8,5V0h0.3v5H137.8z"/>
	<path class="st0" d="M148.4,14.2V10h0.3v4.2H148.4z M148.4,5V0h0.3v5H148.4z"/>
	<path class="st0" d="M159.1,14.2V10h0.3v4.2H159.1z M159.1,5V0h0.3v5H159.1z"/>
	<rect x="169.6" y="0" class="st0" width="0.5" height="14.2"/>
	<path class="st0" d="M180.3,14.2V10h0.3v4.2H180.3z M180.3,5V0h0.3v5H180.3z"/>
	<path class="st0" d="M191,14.2V10h0.3v4.2H191z M191,5V0h0.3v5H191z"/>
	<path class="st0" d="M201.6,14.2V10h0.3v4.2H201.6z M201.6,5V0h0.3v5H201.6z"/>
	<rect x="212.1" y="0" class="st0" width="0.5" height="14.2"/>
	<path class="st0" d="M222.9,14.2V10h0.3v4.2H222.9z M222.9,5V0h0.3v5H222.9z"/>
	<path class="st0" d="M233.5,14.2V10h0.3v4.2H233.5z M233.5,5V0h0.3v5H233.5z"/>
	<path class="st0" d="M244.1,14.2V10h0.3v4.2H244.1z M244.1,5V0h0.3v5H244.1z"/>
	<rect x="254.6" y="0" class="st0" width="0.5" height="14.2"/>
	<path class="st0" d="M265.4,14.2V10h0.3v4.2H265.4z M265.4,5V0h0.3v5H265.4z"/>
	<path class="st0" d="M276,14.2V10h0.3v4.2H276z M276,5V0h0.3v5H276z"/>
	<path class="st0" d="M286.6,14.2V10h0.3v4.2H286.6z M286.6,5V0h0.3v5H286.6z"/>
	<rect x="297.1" y="0" class="st0" width="0.5" height="14.2"/>
	<path class="st0" d="M307.9,14.2V10h0.3v4.2H307.9z M307.9,5V0h0.3v5H307.9z"/>
	<path class="st0" d="M318.5,14.2V10h0.3v4.2H318.5z M318.5,5V0h0.3v5H318.5z"/>
	<path class="st0" d="M329.2,14.2V10h0.3v4.2H329.2z M329.2,5V0h0.3v5H329.2z"/>
	<rect x="339.7" y="0" class="st0" width="0.5" height="14.2"/>
	<path class="st0" d="M350.4,14.2V10h0.3v4.2H350.4z M350.4,5V0h0.3v5H350.4z"/>
</g>
<g>
</g>
<g>
</g>
<g>
</g>
<g>
</g>
<g>
</g>
<g>
</g>
</svg>
