<?xml version="1.0" encoding="utf-8"?>
<!-- Generator: Adobe Illustrator 22.1.0, SVG Export Plug-In . SVG Version: 6.00 Build 0)  -->
<svg version="1.1" id="Layer_1" xmlns="http://www.w3.org/2000/svg" xmlns:xlink="http://www.w3.org/1999/xlink" x="0px" y="0px"
	 viewBox="0 0 233.9 14.2" style="enable-background:new 0 0 233.9 14.2;" xml:space="preserve">
<style type="text/css">
	.st0{fill-rule:evenodd;clip-rule:evenodd;fill:#FEFEFE;}
	.st1{fill:#FF674C;}
</style>
<g>
	<polyline class="st0" points="0,14.2 0,0 233.9,0 233.9,14.2 	"/>
	<polyline class="st1" points="10.5,14.1 10.5,9.4 10.8,9.4 10.8,14.1 	"/>
	<rect x="10.5" y="0" class="st1" width="0.3" height="4.7"/>
	<polyline class="st1" points="21.1,14.1 21.1,9.4 21.4,9.4 21.4,14.1 	"/>
	<rect x="21.1" y="0" class="st1" width="0.3" height="4.7"/>
	<polyline class="st1" points="31.8,14.1 31.8,9.4 32,9.4 32,14.1 	"/>
	<rect x="31.8" y="0" class="st1" width="0.3" height="4.7"/>
	<polyline class="st1" points="53,14.1 53,9.4 53.3,9.4 53.3,14.1 	"/>
	<rect x="53" y="0" class="st1" width="0.3" height="4.7"/>
	<polyline class="st1" points="42.4,14.1 42.4,9.4 42.6,9.4 42.6,14.1 	"/>
	<rect x="42.4" y="0" class="st1" width="0.3" height="4.7"/>
	<polyline class="st1" points="63.7,14.1 63.7,9.4 63.9,9.4 63.9,14.1 	"/>
	<rect x="63.7" y="0" class="st1" width="0.3" height="4.7"/>
	<polyline class="st1" points="74.3,14.1 74.3,9.4 74.5,9.4 74.5,14.1 	"/>
	<rect x="74.3" y="0" class="st1" width="0.3" height="4.7"/>
	<polyline class="st1" points="95.5,14.1 95.5,9.4 95.8,9.4 95.8,14.1 	"/>
	<rect x="95.5" y="0" class="st1" width="0.3" height="4.7"/>
	<polyline class="st1" points="84.9,14.1 84.9,9.4 85.2,9.4 85.2,14.1 	"/>
	<rect x="84.9" y="0" class="st1" width="0.3" height="4.7"/>
	<polyline class="st1" points="106.2,14.1 106.2,9.4 106.4,9.4 106.4,14.1 	"/>
	<rect x="106.2" y="0" class="st1" width="0.3" height="4.7"/>
	<polyline class="st1" points="116.8,14.1 116.8,9.4 117.1,9.4 117.1,14.1 	"/>
	<rect x="116.8" y="0" class="st1" width="0.3" height="4.7"/>
	<polyline class="st1" points="138.1,14.1 138.1,9.4 138.3,9.4 138.3,14.1 	"/>
	<rect x="138.1" y="0" class="st1" width="0.3" height="4.7"/>
	<polyline class="st1" points="127.4,14.1 127.4,9.4 127.7,9.4 127.7,14.1 	"/>
	<rect x="127.4" y="0" class="st1" width="0.3" height="4.7"/>
	<polyline class="st1" points="148.7,14.1 148.7,9.4 148.9,9.4 148.9,14.1 	"/>
	<rect x="148.7" y="0" class="st1" width="0.3" height="4.7"/>
	<polyline class="st1" points="159.3,14.1 159.3,9.4 159.6,9.4 159.6,14.1 	"/>
	<rect x="159.3" y="0" class="st1" width="0.3" height="4.7"/>
	<polyline class="st1" points="180.6,14.1 180.6,9.4 180.8,9.4 180.8,14.1 	"/>
	<rect x="180.6" y="0" class="st1" width="0.3" height="4.7"/>
	<polyline class="st1" points="170,14.1 170,9.4 170.2,9.4 170.2,14.1 	"/>
	<rect x="170" y="0" class="st1" width="0.3" height="4.7"/>
	<polyline class="st1" points="191.2,14.1 191.2,9.4 191.5,9.4 191.5,14.1 	"/>
	<rect x="191.2" y="0" class="st1" width="0.3" height="4.7"/>
	<polyline class="st1" points="201.8,14.1 201.8,9.4 202.1,9.4 202.1,14.1 	"/>
	<rect x="201.8" y="0" class="st1" width="0.3" height="4.7"/>
	<polyline class="st1" points="223.1,14.1 223.1,9.4 223.4,9.4 223.4,14.1 	"/>
	<rect x="223.1" y="0" class="st1" width="0.3" height="4.7"/>
	<polyline class="st1" points="212.5,14.1 212.5,9.4 212.7,9.4 212.7,14.1 	"/>
	<rect x="212.5" y="0" class="st1" width="0.3" height="4.7"/>
</g>
<g>
</g>
<g>
</g>
<g>
</g>
<g>
</g>
<g>
</g>
<g>
</g>
</svg>
