<?xml version="1.0" encoding="utf-8"?>
<!-- Generator: Adobe Illustrator 22.1.0, SVG Export Plug-In . SVG Version: 6.00 Build 0)  -->
<svg version="1.1" id="Layer_1" xmlns="http://www.w3.org/2000/svg" xmlns:xlink="http://www.w3.org/1999/xlink" x="0px" y="0px"
	 viewBox="0 0 282 42.5" style="enable-background:new 0 0 282 42.5;" xml:space="preserve">
<style type="text/css">
	.st0{fill:#FF674C;}
</style>
<g>
	<g>
		<path class="st0" d="M0.1,14.3V14h0.5v0.3H0.1z M0.8,14.3V14h0.5v0.3H0.8z M1.5,14.3V14H2v0.3H1.5z M2.2,14.3V14h0.5v0.3H2.2z
			 M2.9,14.3V14h0.5v0.3H2.9z M3.6,14.3V14h0.5v0.3H3.6z M4.3,14.3V14h0.5v0.3H4.3z M5,14.3V14h0.5v0.3H5z M5.7,14.3V14h0.5v0.3H5.7
			z M6.4,14.3V14h0.5v0.3H6.4z M7.1,14.3V14h0.5v0.3H7.1z M7.8,14.3V14h0.5v0.3H7.8z M8.5,14.3V14H9v0.3H8.5z M9.2,14.3V14h0.5v0.3
			H9.2z M9.9,14.3V14h0.5v0.3H9.9z M10.6,14.3V14h0.5v0.3H10.6z M11.3,14.3V14h0.5v0.3H11.3z M12,14.3V14h0.5v0.3H12z M12.7,14.3V14
			h0.5v0.3H12.7z M13.4,14.3V14h0.5v0.3H13.4z M14.1,14.3V14h0.5v0.3H14.1z M14.8,14.3V14h0.5v0.3H14.8z M15.5,14.3V14H16v0.3H15.5z
			 M16.2,14.3V14h0.5v0.3H16.2z M16.9,14.3V14h0.5v0.3H16.9z M17.6,14.3V14h0.5v0.3H17.6z M18.3,14.3V14h0.5v0.3H18.3z M19,14.3V14
			h0.5v0.3H19z M19.7,14.3V14h0.5v0.3H19.7z M20.4,14.3V14h0.5v0.3H20.4z M21.1,14.3V14h0.5v0.3H21.1z M21.8,14.3V14h0.5v0.3H21.8z
			 M22.5,14.3V14H23v0.3H22.5z M23.2,14.3V14h0.5v0.3H23.2z M23.9,14.3V14h0.5v0.3H23.9z M24.6,14.3V14h0.5v0.3H24.6z M25.3,14.3V14
			h0.5v0.3H25.3z M26,14.3V14h0.5v0.3H26z M26.7,14.3V14h0.5v0.3H26.7z M27.4,14.3V14h0.5v0.3H27.4z M28.1,14.3V14h0.5v0.3H28.1z
			 M28.8,14.3V14h0.5v0.3H28.8z M29.5,14.3V14H30v0.3H29.5z M30.2,14.3V14h0.5v0.3H30.2z M30.9,14.3V14h0.5v0.3H30.9z M31.6,14.3V14
			h0.5v0.3H31.6z M32.3,14.3V14h0.5v0.3H32.3z M33,14.3V14h0.5v0.3H33z M33.7,14.3V14h0.5v0.3H33.7z M34.4,14.3V14h0.5v0.3H34.4z
			 M35.1,14.3V14h0.5v0.3H35.1z M35.8,14.3V14h0.5v0.3H35.8z M36.5,14.3V14H37v0.3H36.5z M37.2,14.3V14h0.5v0.3H37.2z M37.9,14.3V14
			h0.5v0.3H37.9z M38.6,14.3V14h0.5v0.3H38.6z M39.3,14.3V14h0.5v0.3H39.3z M40,14.3V14h0.5v0.3H40z M40.7,14.3V14h0.5v0.3H40.7z
			 M41.4,14.3V14h0.5v0.3H41.4z M42.1,14.3V14h0.5v0.3H42.1z M42.8,14.3V14h0.5v0.3H42.8z M43.5,14.3V14H44v0.3H43.5z M44.2,14.3V14
			h0.5v0.3H44.2z M44.9,14.3V14h0.5v0.3H44.9z M45.6,14.3V14h0.5v0.3H45.6z M46.3,14.3V14h0.5v0.3H46.3z M47,14.3V14h0.5v0.3H47z
			 M47.7,14.3V14h0.5v0.3H47.7z M48.4,14.3V14h0.5v0.3H48.4z M49.1,14.3V14h0.5v0.3H49.1z M49.8,14.3V14h0.5v0.3H49.8z M50.5,14.3
			V14H51v0.3H50.5z M51.2,14.3V14h0.5v0.3H51.2z M51.9,14.3V14h0.5v0.3H51.9z M52.6,14.3V14h0.5v0.3H52.6z M53.3,14.3V14h0.5v0.3
			H53.3z M54,14.3V14h0.5v0.3H54z M54.7,14.3V14h0.5v0.3H54.7z M55.4,14.3V14h0.5v0.3H55.4z M56.1,14.3V14h0.5v0.3H56.1z M56.8,14.3
			V14h0.5v0.3H56.8z M57.5,14.3V14H58v0.3H57.5z M58.2,14.3V14h0.5v0.3H58.2z M58.9,14.3V14h0.5v0.3H58.9z M59.6,14.3V14h0.5v0.3
			H59.6z M60.3,14.3V14h0.5v0.3H60.3z M61,14.3V14h0.5v0.3H61z M61.7,14.3V14h0.5v0.3H61.7z M62.4,14.3V14h0.5v0.3H62.4z M63.1,14.3
			V14h0.5v0.3H63.1z M63.8,14.3V14h0.5v0.3H63.8z M64.5,14.3V14H65v0.3H64.5z M65.2,14.3V14h0.5v0.3H65.2z M65.9,14.3V14h0.5v0.3
			H65.9z M66.6,14.3V14h0.5v0.3H66.6z M67.3,14.3V14h0.5v0.3H67.3z M68,14.3V14h0.5v0.3H68z M68.7,14.3V14h0.5v0.3H68.7z M69.4,14.3
			V14h0.5v0.3H69.4z M70.1,14.3V14h0.5v0.3H70.1z M70.8,14.3V14h0.5v0.3H70.8z M71.5,14.3V14H72v0.3H71.5z M72.2,14.3V14h0.5v0.3
			H72.2z M72.9,14.3V14h0.5v0.3H72.9z M73.6,14.3V14h0.5v0.3H73.6z M74.3,14.3V14h0.5v0.3H74.3z M75,14.3V14h0.5v0.3H75z M75.7,14.3
			V14h0.5v0.3H75.7z M76.4,14.3V14h0.5v0.3H76.4z M77.1,14.3V14h0.5v0.3H77.1z M77.8,14.3V14h0.5v0.3H77.8z M78.5,14.3V14H79v0.3
			H78.5z M79.2,14.3V14h0.5v0.3H79.2z M79.9,14.3V14h0.5v0.3H79.9z M80.6,14.3V14h0.5v0.3H80.6z M81.3,14.3V14h0.5v0.3H81.3z
			 M82,14.3V14h0.5v0.3H82z M82.7,14.3V14h0.5v0.3H82.7z M83.4,14.3V14h0.5v0.3H83.4z M84.1,14.3V14h0.5v0.3H84.1z M84.8,14.3V14
			h0.5v0.3H84.8z M85.5,14.3V14H86v0.3H85.5z M86.2,14.3V14h0.5v0.3H86.2z M86.9,14.3V14h0.5v0.3H86.9z M87.6,14.3V14h0.5v0.3H87.6z
			 M88.3,14.3V14h0.5v0.3H88.3z M89,14.3V14h0.5v0.3H89z M89.7,14.3V14h0.5v0.3H89.7z M90.4,14.3V14h0.5v0.3H90.4z M91.1,14.3V14
			h0.5v0.3H91.1z M91.8,14.3V14h0.5v0.3H91.8z M92.5,14.3V14H93v0.3H92.5z M93.2,14.3V14h0.5v0.3H93.2z M93.9,14.3V14h0.5v0.3H93.9z
			 M94.6,14.3V14h0.5v0.3H94.6z M95.3,14.3V14h0.5v0.3H95.3z M96,14.3V14h0.5v0.3H96z M96.7,14.3V14h0.5v0.3H96.7z M97.4,14.3V14
			h0.5v0.3H97.4z M98.1,14.3V14h0.5v0.3H98.1z M98.8,14.3V14h0.5v0.3H98.8z M99.5,14.3V14h0.5v0.3H99.5z M100.2,14.3V14h0.5v0.3
			H100.2z M100.9,14.3V14h0.5v0.3H100.9z M101.6,14.3V14h0.5v0.3H101.6z M102.3,14.3V14h0.5v0.3H102.3z M103,14.3V14h0.5v0.3H103z
			 M103.7,14.3V14h0.5v0.3H103.7z M104.4,14.3V14h0.5v0.3H104.4z M105.1,14.3V14h0.5v0.3H105.1z M105.8,14.3V14h0.5v0.3H105.8z
			 M106.5,14.3V14h0.5v0.3H106.5z M107.2,14.3V14h0.5v0.3H107.2z M107.9,14.3V14h0.5v0.3H107.9z M108.6,14.3V14h0.5v0.3H108.6z
			 M109.3,14.3V14h0.5v0.3H109.3z M110,14.3V14h0.5v0.3H110z M110.7,14.3V14h0.5v0.3H110.7z M111.4,14.3V14h0.5v0.3H111.4z
			 M112.1,14.3V14h0.5v0.3H112.1z M112.8,14.3V14h0.5v0.3H112.8z M113.5,14.3V14h0.5v0.3H113.5z M114.2,14.3V14h0.5v0.3H114.2z
			 M114.9,14.3V14h0.5v0.3H114.9z M115.6,14.3V14h0.5v0.3H115.6z M116.3,14.3V14h0.5v0.3H116.3z M117,14.3V14h0.5v0.3H117z
			 M117.7,14.3V14h0.5v0.3H117.7z M118.4,14.3V14h0.5v0.3H118.4z M119.1,14.3V14h0.5v0.3H119.1z M119.8,14.3V14h0.5v0.3H119.8z
			 M120.5,14.3V14h0.5v0.3H120.5z M121.2,14.3V14h0.5v0.3H121.2z M121.9,14.3V14h0.5v0.3H121.9z M122.6,14.3V14h0.5v0.3H122.6z
			 M123.3,14.3V14h0.5v0.3H123.3z M124,14.3V14h0.5v0.3H124z M124.7,14.3V14h0.5v0.3H124.7z M125.4,14.3V14h0.5v0.3H125.4z
			 M126.1,14.3V14h0.5v0.3H126.1z M126.8,14.3V14h0.5v0.3H126.8z M127.5,14.3V14h0.5v0.3H127.5z M128.2,14.3V14h0.5v0.3H128.2z
			 M128.9,14.3V14h0.5v0.3H128.9z M129.6,14.3V14h0.5v0.3H129.6z M130.3,14.3V14h0.5v0.3H130.3z M131,14.3V14h0.5v0.3H131z
			 M131.7,14.3V14h0.5v0.3H131.7z M132.4,14.3V14h0.5v0.3H132.4z M133.1,14.3V14h0.5v0.3H133.1z M133.8,14.3V14h0.5v0.3H133.8z
			 M134.5,14.3V14h0.5v0.3H134.5z M135.2,14.3V14h0.5v0.3H135.2z M135.9,14.3V14h0.5v0.3H135.9z M136.6,14.3V14h0.5v0.3H136.6z
			 M137.3,14.3V14h0.5v0.3H137.3z M138,14.3V14h0.5v0.3H138z M138.7,14.3V14h0.5v0.3H138.7z M139.4,14.3V14h0.5v0.3H139.4z
			 M140.1,14.3V14h0.5v0.3H140.1z M140.8,14.3V14h0.5v0.3H140.8z M141.5,14.3V14h0.5v0.3H141.5z M142.2,14.3V14h0.5v0.3H142.2z
			 M142.9,14.3V14h0.5v0.3H142.9z M143.6,14.3V14h0.5v0.3H143.6z M144.3,14.3V14h0.5v0.3H144.3z M145,14.3V14h0.5v0.3H145z
			 M145.7,14.3V14h0.5v0.3H145.7z M146.4,14.3V14h0.5v0.3H146.4z M147.1,14.3V14h0.5v0.3H147.1z M147.8,14.3V14h0.5v0.3H147.8z
			 M148.5,14.3V14h0.5v0.3H148.5z M149.2,14.3V14h0.5v0.3H149.2z M149.9,14.3V14h0.5v0.3H149.9z M150.6,14.3V14h0.5v0.3H150.6z
			 M151.3,14.3V14h0.5v0.3H151.3z M152,14.3V14h0.5v0.3H152z M152.7,14.3V14h0.5v0.3H152.7z M153.4,14.3V14h0.5v0.3H153.4z
			 M154.1,14.3V14h0.5v0.3H154.1z M154.8,14.3V14h0.5v0.3H154.8z M155.5,14.3V14h0.5v0.3H155.5z M156.2,14.3V14h0.5v0.3H156.2z
			 M156.9,14.3V14h0.5v0.3H156.9z M157.6,14.3V14h0.5v0.3H157.6z M158.3,14.3V14h0.5v0.3H158.3z M159,14.3V14h0.5v0.3H159z
			 M159.7,14.3V14h0.5v0.3H159.7z M160.4,14.3V14h0.5v0.3H160.4z M161.1,14.3V14h0.5v0.3H161.1z M161.8,14.3V14h0.5v0.3H161.8z
			 M162.5,14.3V14h0.5v0.3H162.5z M163.2,14.3V14h0.5v0.3H163.2z M163.9,14.3V14h0.5v0.3H163.9z M164.6,14.3V14h0.5v0.3H164.6z
			 M165.3,14.3V14h0.5v0.3H165.3z M166,14.3V14h0.5v0.3H166z M166.7,14.3V14h0.5v0.3H166.7z M167.4,14.3V14h0.5v0.3H167.4z
			 M168.1,14.3V14h0.5v0.3H168.1z M168.8,14.3V14h0.5v0.3H168.8z M169.5,14.3V14h0.5v0.3H169.5z M170.2,14.3V14h0.5v0.3H170.2z
			 M170.9,14.3V14h0.5v0.3H170.9z M171.6,14.3V14h0.5v0.3H171.6z M172.3,14.3V14h0.5v0.3H172.3z M173,14.3V14h0.5v0.3H173z
			 M173.7,14.3V14h0.5v0.3H173.7z M174.4,14.3V14h0.5v0.3H174.4z M175.1,14.3V14h0.5v0.3H175.1z M175.8,14.3V14h0.5v0.3H175.8z
			 M176.5,14.3V14h0.5v0.3H176.5z M177.2,14.3V14h0.5v0.3H177.2z M177.9,14.3V14h0.5v0.3H177.9z M178.6,14.3V14h0.5v0.3H178.6z
			 M179.3,14.3V14h0.5v0.3H179.3z M180,14.3V14h0.5v0.3H180z M180.7,14.3V14h0.5v0.3H180.7z M181.4,14.3V14h0.5v0.3H181.4z
			 M182.1,14.3V14h0.5v0.3H182.1z M182.8,14.3V14h0.5v0.3H182.8z M183.5,14.3V14h0.5v0.3H183.5z M184.2,14.3V14h0.5v0.3H184.2z
			 M184.9,14.3V14h0.5v0.3H184.9z M185.6,14.3V14h0.5v0.3H185.6z M186.3,14.3V14h0.5v0.3H186.3z M187,14.3V14h0.5v0.3H187z
			 M187.7,14.3V14h0.5v0.3H187.7z M188.4,14.3V14h0.5v0.3H188.4z M189.1,14.3V14h0.5v0.3H189.1z M189.8,14.3V14h0.5v0.3H189.8z
			 M190.5,14.3V14h0.5v0.3H190.5z M191.2,14.3V14h0.5v0.3H191.2z M191.9,14.3V14h0.5v0.3H191.9z M192.6,14.3V14h0.5v0.3H192.6z
			 M193.3,14.3V14h0.5v0.3H193.3z M194,14.3V14h0.5v0.3H194z M194.7,14.3V14h0.5v0.3H194.7z M195.4,14.3V14h0.5v0.3H195.4z
			 M196.1,14.3V14h0.5v0.3H196.1z M196.8,14.3V14h0.5v0.3H196.8z M197.5,14.3V14h0.5v0.3H197.5z M198.2,14.3V14h0.5v0.3H198.2z
			 M198.9,14.3V14h0.5v0.3H198.9z M199.6,14.3V14h0.5v0.3H199.6z M200.3,14.3V14h0.5v0.3H200.3z M201,14.3V14h0.5v0.3H201z
			 M201.7,14.3V14h0.5v0.3H201.7z M202.4,14.3V14h0.5v0.3H202.4z M203.1,14.3V14h0.5v0.3H203.1z M203.8,14.3V14h0.5v0.3H203.8z
			 M204.5,14.3V14h0.5v0.3H204.5z M205.2,14.3V14h0.5v0.3H205.2z M205.9,14.3V14h0.5v0.3H205.9z M206.6,14.3V14h0.5v0.3H206.6z
			 M207.3,14.3V14h0.5v0.3H207.3z M208,14.3V14h0.5v0.3H208z M208.7,14.3V14h0.5v0.3H208.7z M209.4,14.3V14h0.5v0.3H209.4z
			 M210.1,14.3V14h0.5v0.3H210.1z M210.8,14.3V14h0.5v0.3H210.8z M211.5,14.3V14h0.5v0.3H211.5z M212.2,14.3V14h0.5v0.3H212.2z
			 M212.9,14.3V14h0.5v0.3H212.9z M213.6,14.3V14h0.5v0.3H213.6z M214.3,14.3V14h0.5v0.3H214.3z M215,14.3V14h0.5v0.3H215z
			 M215.7,14.3V14h0.5v0.3H215.7z M216.4,14.3V14h0.5v0.3H216.4z M217.1,14.3V14h0.5v0.3H217.1z M217.8,14.3V14h0.5v0.3H217.8z
			 M218.5,14.3V14h0.5v0.3H218.5z M219.2,14.3V14h0.5v0.3H219.2z M219.9,14.3V14h0.5v0.3H219.9z M220.6,14.3V14h0.5v0.3H220.6z
			 M221.3,14.3V14h0.5v0.3H221.3z M222,14.3V14h0.5v0.3H222z M222.7,14.3V14h0.5v0.3H222.7z M223.4,14.3V14h0.5v0.3H223.4z
			 M224.1,14.3V14h0.5v0.3H224.1z M224.8,14.3V14h0.5v0.3H224.8z M225.5,14.3V14h0.5v0.3H225.5z M226.2,14.3V14h0.5v0.3H226.2z
			 M226.9,14.3V14h0.5v0.3H226.9z M227.6,14.3V14h0.5v0.3H227.6z M228.3,14.3V14h0.5v0.3H228.3z M229,14.3V14h0.5v0.3H229z
			 M229.7,14.3V14h0.5v0.3H229.7z M230.4,14.3V14h0.5v0.3H230.4z M231.1,14.3V14h0.5v0.3H231.1z M231.8,14.3V14h0.5v0.3H231.8z
			 M232.5,14.3V14h0.5v0.3H232.5z M233.2,14.3V14h0.5v0.3H233.2z M233.9,14.3V14h0.5v0.3H233.9z M234.6,14.3V14h0.5v0.3H234.6z
			 M235.3,14.3V14h0.5v0.3H235.3z M236,14.3V14h0.5v0.3H236z M236.7,14.3V14h0.5v0.3H236.7z M237.4,14.3V14h0.5v0.3H237.4z
			 M238.1,14.3V14h0.5v0.3H238.1z M238.8,14.3V14h0.5v0.3H238.8z M239.5,14.3V14h0.5v0.3H239.5z M240.2,14.3V14h0.5v0.3H240.2z
			 M240.9,14.3V14h0.5v0.3H240.9z M241.6,14.3V14h0.5v0.3H241.6z M242.3,14.3V14h0.5v0.3H242.3z M243,14.3V14h0.5v0.3H243z
			 M243.7,14.3V14h0.5v0.3H243.7z M244.4,14.3V14h0.5v0.3H244.4z M245.1,14.3V14h0.5v0.3H245.1z M245.8,14.3V14h0.5v0.3H245.8z
			 M246.5,14.3V14h0.5v0.3H246.5z M247.2,14.3V14h0.5v0.3H247.2z M247.9,14.3V14h0.5v0.3H247.9z M248.6,14.3V14h0.5v0.3H248.6z
			 M249.3,14.3V14h0.5v0.3H249.3z M250,14.3V14h0.5v0.3H250z M250.7,14.3V14h0.5v0.3H250.7z M251.4,14.3V14h0.5v0.3H251.4z
			 M252.1,14.3V14h0.5v0.3H252.1z M252.8,14.3V14h0.5v0.3H252.8z M253.5,14.3V14h0.5v0.3H253.5z M254.2,14.3V14h0.5v0.3H254.2z
			 M254.9,14.3V14h0.5v0.3H254.9z M255.6,14.3V14h0.5v0.3H255.6z M256.3,14.3V14h0.5v0.3H256.3z M257,14.3V14h0.5v0.3H257z
			 M257.7,14.3V14h0.5v0.3H257.7z M258.4,14.3V14h0.5v0.3H258.4z M259.1,14.3V14h0.5v0.3H259.1z M259.8,14.3V14h0.5v0.3H259.8z
			 M260.5,14.3V14h0.5v0.3H260.5z M261.2,14.3V14h0.5v0.3H261.2z M261.9,14.3V14h0.5v0.3H261.9z M262.6,14.3V14h0.5v0.3H262.6z
			 M263.3,14.3V14h0.5v0.3H263.3z M264,14.3V14h0.5v0.3H264z M264.7,14.3V14h0.5v0.3H264.7z M265.4,14.3V14h0.5v0.3H265.4z
			 M266.1,14.3V14h0.5v0.3H266.1z M266.8,14.3V14h0.5v0.3H266.8z M267.5,14.3V14h0.5v0.3H267.5z M268.2,14.3V14h0.5v0.3H268.2z
			 M268.9,14.3V14h0.5v0.3H268.9z M269.6,14.3V14h0.5v0.3H269.6z M270.3,14.3V14h0.5v0.3H270.3z M271,14.3V14h0.5v0.3H271z
			 M271.7,14.3V14h0.5v0.3H271.7z M272.4,14.3V14h0.5v0.3H272.4z M273.1,14.3V14h0.5v0.3H273.1z M273.8,14.3V14h0.5v0.3H273.8z
			 M274.5,14.3V14h0.5v0.3H274.5z M275.2,14.3V14h0.5v0.3H275.2z M275.9,14.3V14h0.5v0.3H275.9z M276.6,14.3V14h0.5v0.3H276.6z
			 M277.3,14.3V14h0.5v0.3H277.3z M278,14.3V14h0.5v0.3H278z M278.7,14.3V14h0.5v0.3H278.7z M279.4,14.3V14h0.5v0.3H279.4z
			 M280.1,14.3V14h0.5v0.3H280.1z M280.8,14.3V14h0.5v0.3H280.8z M281.5,14.3V14h0.5v0.3H281.5z"/>
	</g>
	<g>
		<path class="st0" d="M0.1,28.5v-0.3h0.5v0.3H0.1z M0.8,28.5v-0.3h0.5v0.3H0.8z M1.5,28.5v-0.3H2v0.3H1.5z M2.2,28.5v-0.3h0.5v0.3
			H2.2z M2.9,28.5v-0.3h0.5v0.3H2.9z M3.6,28.5v-0.3h0.5v0.3H3.6z M4.3,28.5v-0.3h0.5v0.3H4.3z M5,28.5v-0.3h0.5v0.3H5z M5.7,28.5
			v-0.3h0.5v0.3H5.7z M6.4,28.5v-0.3h0.5v0.3H6.4z M7.1,28.5v-0.3h0.5v0.3H7.1z M7.8,28.5v-0.3h0.5v0.3H7.8z M8.5,28.5v-0.3H9v0.3
			H8.5z M9.2,28.5v-0.3h0.5v0.3H9.2z M9.9,28.5v-0.3h0.5v0.3H9.9z M10.6,28.5v-0.3h0.5v0.3H10.6z M11.3,28.5v-0.3h0.5v0.3H11.3z
			 M12,28.5v-0.3h0.5v0.3H12z M12.7,28.5v-0.3h0.5v0.3H12.7z M13.4,28.5v-0.3h0.5v0.3H13.4z M14.1,28.5v-0.3h0.5v0.3H14.1z
			 M14.8,28.5v-0.3h0.5v0.3H14.8z M15.5,28.5v-0.3H16v0.3H15.5z M16.2,28.5v-0.3h0.5v0.3H16.2z M16.9,28.5v-0.3h0.5v0.3H16.9z
			 M17.6,28.5v-0.3h0.5v0.3H17.6z M18.3,28.5v-0.3h0.5v0.3H18.3z M19,28.5v-0.3h0.5v0.3H19z M19.7,28.5v-0.3h0.5v0.3H19.7z
			 M20.4,28.5v-0.3h0.5v0.3H20.4z M21.1,28.5v-0.3h0.5v0.3H21.1z M21.8,28.5v-0.3h0.5v0.3H21.8z M22.5,28.5v-0.3H23v0.3H22.5z
			 M23.2,28.5v-0.3h0.5v0.3H23.2z M23.9,28.5v-0.3h0.5v0.3H23.9z M24.6,28.5v-0.3h0.5v0.3H24.6z M25.3,28.5v-0.3h0.5v0.3H25.3z
			 M26,28.5v-0.3h0.5v0.3H26z M26.7,28.5v-0.3h0.5v0.3H26.7z M27.4,28.5v-0.3h0.5v0.3H27.4z M28.1,28.5v-0.3h0.5v0.3H28.1z
			 M28.8,28.5v-0.3h0.5v0.3H28.8z M29.5,28.5v-0.3H30v0.3H29.5z M30.2,28.5v-0.3h0.5v0.3H30.2z M30.9,28.5v-0.3h0.5v0.3H30.9z
			 M31.6,28.5v-0.3h0.5v0.3H31.6z M32.3,28.5v-0.3h0.5v0.3H32.3z M33,28.5v-0.3h0.5v0.3H33z M33.7,28.5v-0.3h0.5v0.3H33.7z
			 M34.4,28.5v-0.3h0.5v0.3H34.4z M35.1,28.5v-0.3h0.5v0.3H35.1z M35.8,28.5v-0.3h0.5v0.3H35.8z M36.5,28.5v-0.3H37v0.3H36.5z
			 M37.2,28.5v-0.3h0.5v0.3H37.2z M37.9,28.5v-0.3h0.5v0.3H37.9z M38.6,28.5v-0.3h0.5v0.3H38.6z M39.3,28.5v-0.3h0.5v0.3H39.3z
			 M40,28.5v-0.3h0.5v0.3H40z M40.7,28.5v-0.3h0.5v0.3H40.7z M41.4,28.5v-0.3h0.5v0.3H41.4z M42.1,28.5v-0.3h0.5v0.3H42.1z
			 M42.8,28.5v-0.3h0.5v0.3H42.8z M43.5,28.5v-0.3H44v0.3H43.5z M44.2,28.5v-0.3h0.5v0.3H44.2z M44.9,28.5v-0.3h0.5v0.3H44.9z
			 M45.6,28.5v-0.3h0.5v0.3H45.6z M46.3,28.5v-0.3h0.5v0.3H46.3z M47,28.5v-0.3h0.5v0.3H47z M47.7,28.5v-0.3h0.5v0.3H47.7z
			 M48.4,28.5v-0.3h0.5v0.3H48.4z M49.1,28.5v-0.3h0.5v0.3H49.1z M49.8,28.5v-0.3h0.5v0.3H49.8z M50.5,28.5v-0.3H51v0.3H50.5z
			 M51.2,28.5v-0.3h0.5v0.3H51.2z M51.9,28.5v-0.3h0.5v0.3H51.9z M52.6,28.5v-0.3h0.5v0.3H52.6z M53.3,28.5v-0.3h0.5v0.3H53.3z
			 M54,28.5v-0.3h0.5v0.3H54z M54.7,28.5v-0.3h0.5v0.3H54.7z M55.4,28.5v-0.3h0.5v0.3H55.4z M56.1,28.5v-0.3h0.5v0.3H56.1z
			 M56.8,28.5v-0.3h0.5v0.3H56.8z M57.5,28.5v-0.3H58v0.3H57.5z M58.2,28.5v-0.3h0.5v0.3H58.2z M58.9,28.5v-0.3h0.5v0.3H58.9z
			 M59.6,28.5v-0.3h0.5v0.3H59.6z M60.3,28.5v-0.3h0.5v0.3H60.3z M61,28.5v-0.3h0.5v0.3H61z M61.7,28.5v-0.3h0.5v0.3H61.7z
			 M62.4,28.5v-0.3h0.5v0.3H62.4z M63.1,28.5v-0.3h0.5v0.3H63.1z M63.8,28.5v-0.3h0.5v0.3H63.8z M64.5,28.5v-0.3H65v0.3H64.5z
			 M65.2,28.5v-0.3h0.5v0.3H65.2z M65.9,28.5v-0.3h0.5v0.3H65.9z M66.6,28.5v-0.3h0.5v0.3H66.6z M67.3,28.5v-0.3h0.5v0.3H67.3z
			 M68,28.5v-0.3h0.5v0.3H68z M68.7,28.5v-0.3h0.5v0.3H68.7z M69.4,28.5v-0.3h0.5v0.3H69.4z M70.1,28.5v-0.3h0.5v0.3H70.1z
			 M70.8,28.5v-0.3h0.5v0.3H70.8z M71.5,28.5v-0.3H72v0.3H71.5z M72.2,28.5v-0.3h0.5v0.3H72.2z M72.9,28.5v-0.3h0.5v0.3H72.9z
			 M73.6,28.5v-0.3h0.5v0.3H73.6z M74.3,28.5v-0.3h0.5v0.3H74.3z M75,28.5v-0.3h0.5v0.3H75z M75.7,28.5v-0.3h0.5v0.3H75.7z
			 M76.4,28.5v-0.3h0.5v0.3H76.4z M77.1,28.5v-0.3h0.5v0.3H77.1z M77.8,28.5v-0.3h0.5v0.3H77.8z M78.5,28.5v-0.3H79v0.3H78.5z
			 M79.2,28.5v-0.3h0.5v0.3H79.2z M79.9,28.5v-0.3h0.5v0.3H79.9z M80.6,28.5v-0.3h0.5v0.3H80.6z M81.3,28.5v-0.3h0.5v0.3H81.3z
			 M82,28.5v-0.3h0.5v0.3H82z M82.7,28.5v-0.3h0.5v0.3H82.7z M83.4,28.5v-0.3h0.5v0.3H83.4z M84.1,28.5v-0.3h0.5v0.3H84.1z
			 M84.8,28.5v-0.3h0.5v0.3H84.8z M85.5,28.5v-0.3H86v0.3H85.5z M86.2,28.5v-0.3h0.5v0.3H86.2z M86.9,28.5v-0.3h0.5v0.3H86.9z
			 M87.6,28.5v-0.3h0.5v0.3H87.6z M88.3,28.5v-0.3h0.5v0.3H88.3z M89,28.5v-0.3h0.5v0.3H89z M89.7,28.5v-0.3h0.5v0.3H89.7z
			 M90.4,28.5v-0.3h0.5v0.3H90.4z M91.1,28.5v-0.3h0.5v0.3H91.1z M91.8,28.5v-0.3h0.5v0.3H91.8z M92.5,28.5v-0.3H93v0.3H92.5z
			 M93.2,28.5v-0.3h0.5v0.3H93.2z M93.9,28.5v-0.3h0.5v0.3H93.9z M94.6,28.5v-0.3h0.5v0.3H94.6z M95.3,28.5v-0.3h0.5v0.3H95.3z
			 M96,28.5v-0.3h0.5v0.3H96z M96.7,28.5v-0.3h0.5v0.3H96.7z M97.4,28.5v-0.3h0.5v0.3H97.4z M98.1,28.5v-0.3h0.5v0.3H98.1z
			 M98.8,28.5v-0.3h0.5v0.3H98.8z M99.5,28.5v-0.3h0.5v0.3H99.5z M100.2,28.5v-0.3h0.5v0.3H100.2z M100.9,28.5v-0.3h0.5v0.3H100.9z
			 M101.6,28.5v-0.3h0.5v0.3H101.6z M102.3,28.5v-0.3h0.5v0.3H102.3z M103,28.5v-0.3h0.5v0.3H103z M103.7,28.5v-0.3h0.5v0.3H103.7z
			 M104.4,28.5v-0.3h0.5v0.3H104.4z M105.1,28.5v-0.3h0.5v0.3H105.1z M105.8,28.5v-0.3h0.5v0.3H105.8z M106.5,28.5v-0.3h0.5v0.3
			H106.5z M107.2,28.5v-0.3h0.5v0.3H107.2z M107.9,28.5v-0.3h0.5v0.3H107.9z M108.6,28.5v-0.3h0.5v0.3H108.6z M109.3,28.5v-0.3h0.5
			v0.3H109.3z M110,28.5v-0.3h0.5v0.3H110z M110.7,28.5v-0.3h0.5v0.3H110.7z M111.4,28.5v-0.3h0.5v0.3H111.4z M112.1,28.5v-0.3h0.5
			v0.3H112.1z M112.8,28.5v-0.3h0.5v0.3H112.8z M113.5,28.5v-0.3h0.5v0.3H113.5z M114.2,28.5v-0.3h0.5v0.3H114.2z M114.9,28.5v-0.3
			h0.5v0.3H114.9z M115.6,28.5v-0.3h0.5v0.3H115.6z M116.3,28.5v-0.3h0.5v0.3H116.3z M117,28.5v-0.3h0.5v0.3H117z M117.7,28.5v-0.3
			h0.5v0.3H117.7z M118.4,28.5v-0.3h0.5v0.3H118.4z M119.1,28.5v-0.3h0.5v0.3H119.1z M119.8,28.5v-0.3h0.5v0.3H119.8z M120.5,28.5
			v-0.3h0.5v0.3H120.5z M121.2,28.5v-0.3h0.5v0.3H121.2z M121.9,28.5v-0.3h0.5v0.3H121.9z M122.6,28.5v-0.3h0.5v0.3H122.6z
			 M123.3,28.5v-0.3h0.5v0.3H123.3z M124,28.5v-0.3h0.5v0.3H124z M124.7,28.5v-0.3h0.5v0.3H124.7z M125.4,28.5v-0.3h0.5v0.3H125.4z
			 M126.1,28.5v-0.3h0.5v0.3H126.1z M126.8,28.5v-0.3h0.5v0.3H126.8z M127.5,28.5v-0.3h0.5v0.3H127.5z M128.2,28.5v-0.3h0.5v0.3
			H128.2z M128.9,28.5v-0.3h0.5v0.3H128.9z M129.6,28.5v-0.3h0.5v0.3H129.6z M130.3,28.5v-0.3h0.5v0.3H130.3z M131,28.5v-0.3h0.5
			v0.3H131z M131.7,28.5v-0.3h0.5v0.3H131.7z M132.4,28.5v-0.3h0.5v0.3H132.4z M133.1,28.5v-0.3h0.5v0.3H133.1z M133.8,28.5v-0.3
			h0.5v0.3H133.8z M134.5,28.5v-0.3h0.5v0.3H134.5z M135.2,28.5v-0.3h0.5v0.3H135.2z M135.9,28.5v-0.3h0.5v0.3H135.9z M136.6,28.5
			v-0.3h0.5v0.3H136.6z M137.3,28.5v-0.3h0.5v0.3H137.3z M138,28.5v-0.3h0.5v0.3H138z M138.7,28.5v-0.3h0.5v0.3H138.7z M139.4,28.5
			v-0.3h0.5v0.3H139.4z M140.1,28.5v-0.3h0.5v0.3H140.1z M140.8,28.5v-0.3h0.5v0.3H140.8z M141.5,28.5v-0.3h0.5v0.3H141.5z
			 M142.2,28.5v-0.3h0.5v0.3H142.2z M142.9,28.5v-0.3h0.5v0.3H142.9z M143.6,28.5v-0.3h0.5v0.3H143.6z M144.3,28.5v-0.3h0.5v0.3
			H144.3z M145,28.5v-0.3h0.5v0.3H145z M145.7,28.5v-0.3h0.5v0.3H145.7z M146.4,28.5v-0.3h0.5v0.3H146.4z M147.1,28.5v-0.3h0.5v0.3
			H147.1z M147.8,28.5v-0.3h0.5v0.3H147.8z M148.5,28.5v-0.3h0.5v0.3H148.5z M149.2,28.5v-0.3h0.5v0.3H149.2z M149.9,28.5v-0.3h0.5
			v0.3H149.9z M150.6,28.5v-0.3h0.5v0.3H150.6z M151.3,28.5v-0.3h0.5v0.3H151.3z M152,28.5v-0.3h0.5v0.3H152z M152.7,28.5v-0.3h0.5
			v0.3H152.7z M153.4,28.5v-0.3h0.5v0.3H153.4z M154.1,28.5v-0.3h0.5v0.3H154.1z M154.8,28.5v-0.3h0.5v0.3H154.8z M155.5,28.5v-0.3
			h0.5v0.3H155.5z M156.2,28.5v-0.3h0.5v0.3H156.2z M156.9,28.5v-0.3h0.5v0.3H156.9z M157.6,28.5v-0.3h0.5v0.3H157.6z M158.3,28.5
			v-0.3h0.5v0.3H158.3z M159,28.5v-0.3h0.5v0.3H159z M159.7,28.5v-0.3h0.5v0.3H159.7z M160.4,28.5v-0.3h0.5v0.3H160.4z M161.1,28.5
			v-0.3h0.5v0.3H161.1z M161.8,28.5v-0.3h0.5v0.3H161.8z M162.5,28.5v-0.3h0.5v0.3H162.5z M163.2,28.5v-0.3h0.5v0.3H163.2z
			 M163.9,28.5v-0.3h0.5v0.3H163.9z M164.6,28.5v-0.3h0.5v0.3H164.6z M165.3,28.5v-0.3h0.5v0.3H165.3z M166,28.5v-0.3h0.5v0.3H166z
			 M166.7,28.5v-0.3h0.5v0.3H166.7z M167.4,28.5v-0.3h0.5v0.3H167.4z M168.1,28.5v-0.3h0.5v0.3H168.1z M168.8,28.5v-0.3h0.5v0.3
			H168.8z M169.5,28.5v-0.3h0.5v0.3H169.5z M170.2,28.5v-0.3h0.5v0.3H170.2z M170.9,28.5v-0.3h0.5v0.3H170.9z M171.6,28.5v-0.3h0.5
			v0.3H171.6z M172.3,28.5v-0.3h0.5v0.3H172.3z M173,28.5v-0.3h0.5v0.3H173z M173.7,28.5v-0.3h0.5v0.3H173.7z M174.4,28.5v-0.3h0.5
			v0.3H174.4z M175.1,28.5v-0.3h0.5v0.3H175.1z M175.8,28.5v-0.3h0.5v0.3H175.8z M176.5,28.5v-0.3h0.5v0.3H176.5z M177.2,28.5v-0.3
			h0.5v0.3H177.2z M177.9,28.5v-0.3h0.5v0.3H177.9z M178.6,28.5v-0.3h0.5v0.3H178.6z M179.3,28.5v-0.3h0.5v0.3H179.3z M180,28.5
			v-0.3h0.5v0.3H180z M180.7,28.5v-0.3h0.5v0.3H180.7z M181.4,28.5v-0.3h0.5v0.3H181.4z M182.1,28.5v-0.3h0.5v0.3H182.1z
			 M182.8,28.5v-0.3h0.5v0.3H182.8z M183.5,28.5v-0.3h0.5v0.3H183.5z M184.2,28.5v-0.3h0.5v0.3H184.2z M184.9,28.5v-0.3h0.5v0.3
			H184.9z M185.6,28.5v-0.3h0.5v0.3H185.6z M186.3,28.5v-0.3h0.5v0.3H186.3z M187,28.5v-0.3h0.5v0.3H187z M187.7,28.5v-0.3h0.5v0.3
			H187.7z M188.4,28.5v-0.3h0.5v0.3H188.4z M189.1,28.5v-0.3h0.5v0.3H189.1z M189.8,28.5v-0.3h0.5v0.3H189.8z M190.5,28.5v-0.3h0.5
			v0.3H190.5z M191.2,28.5v-0.3h0.5v0.3H191.2z M191.9,28.5v-0.3h0.5v0.3H191.9z M192.6,28.5v-0.3h0.5v0.3H192.6z M193.3,28.5v-0.3
			h0.5v0.3H193.3z M194,28.5v-0.3h0.5v0.3H194z M194.7,28.5v-0.3h0.5v0.3H194.7z M195.4,28.5v-0.3h0.5v0.3H195.4z M196.1,28.5v-0.3
			h0.5v0.3H196.1z M196.8,28.5v-0.3h0.5v0.3H196.8z M197.5,28.5v-0.3h0.5v0.3H197.5z M198.2,28.5v-0.3h0.5v0.3H198.2z M198.9,28.5
			v-0.3h0.5v0.3H198.9z M199.6,28.5v-0.3h0.5v0.3H199.6z M200.3,28.5v-0.3h0.5v0.3H200.3z M201,28.5v-0.3h0.5v0.3H201z M201.7,28.5
			v-0.3h0.5v0.3H201.7z M202.4,28.5v-0.3h0.5v0.3H202.4z M203.1,28.5v-0.3h0.5v0.3H203.1z M203.8,28.5v-0.3h0.5v0.3H203.8z
			 M204.5,28.5v-0.3h0.5v0.3H204.5z M205.2,28.5v-0.3h0.5v0.3H205.2z M205.9,28.5v-0.3h0.5v0.3H205.9z M206.6,28.5v-0.3h0.5v0.3
			H206.6z M207.3,28.5v-0.3h0.5v0.3H207.3z M208,28.5v-0.3h0.5v0.3H208z M208.7,28.5v-0.3h0.5v0.3H208.7z M209.4,28.5v-0.3h0.5v0.3
			H209.4z M210.1,28.5v-0.3h0.5v0.3H210.1z M210.8,28.5v-0.3h0.5v0.3H210.8z M211.5,28.5v-0.3h0.5v0.3H211.5z M212.2,28.5v-0.3h0.5
			v0.3H212.2z M212.9,28.5v-0.3h0.5v0.3H212.9z M213.6,28.5v-0.3h0.5v0.3H213.6z M214.3,28.5v-0.3h0.5v0.3H214.3z M215,28.5v-0.3
			h0.5v0.3H215z M215.7,28.5v-0.3h0.5v0.3H215.7z M216.4,28.5v-0.3h0.5v0.3H216.4z M217.1,28.5v-0.3h0.5v0.3H217.1z M217.8,28.5
			v-0.3h0.5v0.3H217.8z M218.5,28.5v-0.3h0.5v0.3H218.5z M219.2,28.5v-0.3h0.5v0.3H219.2z M219.9,28.5v-0.3h0.5v0.3H219.9z
			 M220.6,28.5v-0.3h0.5v0.3H220.6z M221.3,28.5v-0.3h0.5v0.3H221.3z M222,28.5v-0.3h0.5v0.3H222z M222.7,28.5v-0.3h0.5v0.3H222.7z
			 M223.4,28.5v-0.3h0.5v0.3H223.4z M224.1,28.5v-0.3h0.5v0.3H224.1z M224.8,28.5v-0.3h0.5v0.3H224.8z M225.5,28.5v-0.3h0.5v0.3
			H225.5z M226.2,28.5v-0.3h0.5v0.3H226.2z M226.9,28.5v-0.3h0.5v0.3H226.9z M227.6,28.5v-0.3h0.5v0.3H227.6z M228.3,28.5v-0.3h0.5
			v0.3H228.3z M229,28.5v-0.3h0.5v0.3H229z M229.7,28.5v-0.3h0.5v0.3H229.7z M230.4,28.5v-0.3h0.5v0.3H230.4z M231.1,28.5v-0.3h0.5
			v0.3H231.1z M231.8,28.5v-0.3h0.5v0.3H231.8z M232.5,28.5v-0.3h0.5v0.3H232.5z M233.2,28.5v-0.3h0.5v0.3H233.2z M233.9,28.5v-0.3
			h0.5v0.3H233.9z M234.6,28.5v-0.3h0.5v0.3H234.6z M235.3,28.5v-0.3h0.5v0.3H235.3z M236,28.5v-0.3h0.5v0.3H236z M236.7,28.5v-0.3
			h0.5v0.3H236.7z M237.4,28.5v-0.3h0.5v0.3H237.4z M238.1,28.5v-0.3h0.5v0.3H238.1z M238.8,28.5v-0.3h0.5v0.3H238.8z M239.5,28.5
			v-0.3h0.5v0.3H239.5z M240.2,28.5v-0.3h0.5v0.3H240.2z M240.9,28.5v-0.3h0.5v0.3H240.9z M241.6,28.5v-0.3h0.5v0.3H241.6z
			 M242.3,28.5v-0.3h0.5v0.3H242.3z M243,28.5v-0.3h0.5v0.3H243z M243.7,28.5v-0.3h0.5v0.3H243.7z M244.4,28.5v-0.3h0.5v0.3H244.4z
			 M245.1,28.5v-0.3h0.5v0.3H245.1z M245.8,28.5v-0.3h0.5v0.3H245.8z M246.5,28.5v-0.3h0.5v0.3H246.5z M247.2,28.5v-0.3h0.5v0.3
			H247.2z M247.9,28.5v-0.3h0.5v0.3H247.9z M248.6,28.5v-0.3h0.5v0.3H248.6z M249.3,28.5v-0.3h0.5v0.3H249.3z M250,28.5v-0.3h0.5
			v0.3H250z M250.7,28.5v-0.3h0.5v0.3H250.7z M251.4,28.5v-0.3h0.5v0.3H251.4z M252.1,28.5v-0.3h0.5v0.3H252.1z M252.8,28.5v-0.3
			h0.5v0.3H252.8z M253.5,28.5v-0.3h0.5v0.3H253.5z M254.2,28.5v-0.3h0.5v0.3H254.2z M254.9,28.5v-0.3h0.5v0.3H254.9z M255.6,28.5
			v-0.3h0.5v0.3H255.6z M256.3,28.5v-0.3h0.5v0.3H256.3z M257,28.5v-0.3h0.5v0.3H257z M257.7,28.5v-0.3h0.5v0.3H257.7z M258.4,28.5
			v-0.3h0.5v0.3H258.4z M259.1,28.5v-0.3h0.5v0.3H259.1z M259.8,28.5v-0.3h0.5v0.3H259.8z M260.5,28.5v-0.3h0.5v0.3H260.5z
			 M261.2,28.5v-0.3h0.5v0.3H261.2z M261.9,28.5v-0.3h0.5v0.3H261.9z M262.6,28.5v-0.3h0.5v0.3H262.6z M263.3,28.5v-0.3h0.5v0.3
			H263.3z M264,28.5v-0.3h0.5v0.3H264z M264.7,28.5v-0.3h0.5v0.3H264.7z M265.4,28.5v-0.3h0.5v0.3H265.4z M266.1,28.5v-0.3h0.5v0.3
			H266.1z M266.8,28.5v-0.3h0.5v0.3H266.8z M267.5,28.5v-0.3h0.5v0.3H267.5z M268.2,28.5v-0.3h0.5v0.3H268.2z M268.9,28.5v-0.3h0.5
			v0.3H268.9z M269.6,28.5v-0.3h0.5v0.3H269.6z M270.3,28.5v-0.3h0.5v0.3H270.3z M271,28.5v-0.3h0.5v0.3H271z M271.7,28.5v-0.3h0.5
			v0.3H271.7z M272.4,28.5v-0.3h0.5v0.3H272.4z M273.1,28.5v-0.3h0.5v0.3H273.1z M273.8,28.5v-0.3h0.5v0.3H273.8z M274.5,28.5v-0.3
			h0.5v0.3H274.5z M275.2,28.5v-0.3h0.5v0.3H275.2z M275.9,28.5v-0.3h0.5v0.3H275.9z M276.6,28.5v-0.3h0.5v0.3H276.6z M277.3,28.5
			v-0.3h0.5v0.3H277.3z M278,28.5v-0.3h0.5v0.3H278z M278.7,28.5v-0.3h0.5v0.3H278.7z M279.4,28.5v-0.3h0.5v0.3H279.4z M280.1,28.5
			v-0.3h0.5v0.3H280.1z M280.8,28.5v-0.3h0.5v0.3H280.8z M281.5,28.5v-0.3h0.5v0.3H281.5z"/>
	</g>
</g>
<g>
</g>
<g>
</g>
<g>
</g>
<g>
</g>
<g>
</g>
<g>
</g>
</svg>
